<svg width="399" height="244" viewBox="0 0 399 244" fill="none" xmlns="http://www.w3.org/2000/svg">
<rect x="1.5" y="20.5" width="222" height="222" fill="white" stroke="#B25F00" stroke-width="3"/>
<rect x="284.5" y="60.5" width="77" height="77" fill="#B25F00" stroke="#B25F00" stroke-width="3"/>
<path d="M303.8 99V95.64C306.547 93.4533 308.947 91.44 311 89.6C313.08 87.76 314.707 85.9867 315.88 84.28C317.053 82.5733 317.64 80.84 317.64 79.08C317.64 77.6133 317.227 76.4667 316.4 75.64C315.573 74.7867 314.453 74.36 313.04 74.36C311.413 74.36 310.16 74.88 309.28 75.92C308.4 76.9333 307.96 78.1467 307.96 79.56H303.84C303.867 77.5867 304.28 75.9333 305.08 74.6C305.88 73.2667 306.96 72.2533 308.32 71.56C309.707 70.8667 311.28 70.52 313.04 70.52C315.893 70.52 318.093 71.2933 319.64 72.84C321.187 74.36 321.96 76.4 321.96 78.96C321.96 80.5867 321.6 82.16 320.88 83.68C320.187 85.1733 319.267 86.6 318.12 87.96C316.973 89.32 315.693 90.6133 314.28 91.84C312.893 93.0667 311.493 94.24 310.08 95.36H322.72V99H303.8ZM336.984 99.48C334.824 99.48 332.931 98.8933 331.304 97.72C329.704 96.5467 328.464 94.88 327.584 92.72C326.704 90.5333 326.264 87.96 326.264 85C326.264 82.0133 326.704 79.44 327.584 77.28C328.464 75.12 329.704 73.4533 331.304 72.28C332.931 71.1067 334.824 70.52 336.984 70.52C339.171 70.52 341.064 71.1067 342.664 72.28C344.264 73.4533 345.504 75.12 346.384 77.28C347.264 79.44 347.704 82.0133 347.704 85C347.704 87.96 347.264 90.5333 346.384 92.72C345.504 94.88 344.264 96.5467 342.664 97.72C341.064 98.8933 339.171 99.48 336.984 99.48ZM330.584 85C330.584 86.4933 330.718 87.8533 330.984 89.08C331.251 90.3067 331.624 91.3733 332.104 92.28L339.104 74.96C338.438 74.64 337.731 74.48 336.984 74.48C335.118 74.48 333.584 75.4267 332.384 77.32C331.184 79.1867 330.584 81.7467 330.584 85ZM336.984 95.56C338.238 95.56 339.344 95.1333 340.304 94.28C341.264 93.4267 342.011 92.2133 342.544 90.64C343.104 89.04 343.384 87.16 343.384 85C343.384 83.5067 343.251 82.1467 342.984 80.92C342.718 79.6933 342.344 78.64 341.864 77.76L334.864 95.08C335.531 95.4 336.238 95.56 336.984 95.56Z" fill="white"/>
<path d="M303.8 131V127.64C306.547 125.453 308.947 123.44 311 121.6C313.08 119.76 314.707 117.987 315.88 116.28C317.053 114.573 317.64 112.84 317.64 111.08C317.64 109.613 317.227 108.467 316.4 107.64C315.573 106.787 314.453 106.36 313.04 106.36C311.413 106.36 310.16 106.88 309.28 107.92C308.4 108.933 307.96 110.147 307.96 111.56H303.84C303.867 109.587 304.28 107.933 305.08 106.6C305.88 105.267 306.96 104.253 308.32 103.56C309.707 102.867 311.28 102.52 313.04 102.52C315.893 102.52 318.093 103.293 319.64 104.84C321.187 106.36 321.96 108.4 321.96 110.96C321.96 112.587 321.6 114.16 320.88 115.68C320.187 117.173 319.267 118.6 318.12 119.96C316.973 121.32 315.693 122.613 314.28 123.84C312.893 125.067 311.493 126.24 310.08 127.36H322.72V131H303.8ZM331.384 131L341.984 106.84H327.344V103H346.344V106.28L335.824 131H331.384Z" fill="white"/>
<line x1="223.415" y1="20.5585" x2="362.415" y2="60.5585" stroke="#B25F00" stroke-width="3"/>
<line x1="224.092" y1="242.806" x2="362.092" y2="137.806" stroke="#B25F00" stroke-width="3"/>
<line x1="0.205652" y1="21.5142" x2="289.206" y2="61.5142" stroke="#B25F00" stroke-width="3"/>
<line x1="2.48699" y1="240.59" x2="285.487" y2="137.59" stroke="#B25F00" stroke-width="3"/>
<path d="M74.398 128.937C68.0834 128.955 62.5358 127.82 57.7553 125.53C53.0602 123.24 49.3456 119.965 46.6115 115.707C43.9628 111.448 42.5935 106.375 42.5034 100.487L56.8394 100.445C56.9283 104.967 58.4674 108.845 61.4566 112.079C64.5311 115.227 68.799 116.793 74.2603 116.777C79.295 116.762 83.2194 115.599 86.0335 113.286C88.8476 110.889 90.2532 107.813 90.2502 104.058C90.2477 100.901 89.3923 98.3004 87.684 96.2574C86.061 94.1289 83.4995 92.2591 79.9996 90.6481C76.4995 88.9518 71.9755 87.2158 66.4274 85.4402C59.0016 83.0728 53.5377 79.8036 50.0357 75.6326C46.5336 71.3763 44.7802 66.1761 44.7753 60.0321C44.7697 52.9495 47.3251 47.2246 52.4416 42.8575C57.5581 38.4903 64.5964 36.2935 73.5563 36.2671C82.2603 36.2413 89.2594 38.482 94.5536 42.989C99.8478 47.4107 102.583 53.5893 102.76 61.5248L88.2964 61.5676C88.2947 59.4342 87.6958 57.388 86.4995 55.4289C85.3033 53.3844 83.5953 51.7254 81.3756 50.452C79.1559 49.0932 76.4247 48.4186 73.182 48.4282C69.1713 48.3547 65.8014 49.346 63.0724 51.4021C60.3433 53.3728 58.9801 56.0648 58.9828 59.4782C58.9861 63.6595 60.6527 66.9399 63.9826 69.3194C67.3125 71.6136 72.733 73.9869 80.2443 76.4394C84.9388 77.9615 89.0789 79.8266 92.6647 82.0347C96.3357 84.1572 99.1966 86.9221 101.247 90.3294C103.383 93.6511 104.453 97.9146 104.457 103.12C104.461 107.899 103.27 112.254 100.884 116.186C98.4975 120.034 95.044 123.116 90.5232 125.433C86.0877 127.75 80.7126 128.918 74.398 128.937ZM151.148 128.71C144.833 128.729 139.285 127.593 134.505 125.303C129.81 123.013 126.095 119.739 123.361 115.48C120.712 111.221 119.343 106.148 119.253 100.26L133.589 100.218C133.678 104.74 135.217 108.618 138.206 111.852C141.281 115 145.549 116.567 151.01 116.55C156.045 116.536 159.969 115.372 162.783 113.06C165.597 110.662 167.003 107.586 167 103.831C166.997 100.674 166.142 98.0736 164.434 96.0307C162.811 93.9021 160.249 92.0324 156.749 90.4214C153.249 88.725 148.725 86.9891 143.177 85.2135C135.751 82.8461 130.287 79.5769 126.785 75.4059C123.283 71.1495 121.53 65.9494 121.525 59.8054C121.519 52.7227 124.075 46.9978 129.191 42.6307C134.308 38.2636 141.346 36.0668 150.306 36.0403C159.01 36.0146 166.009 38.2552 171.303 42.7623C176.597 47.184 179.333 53.3626 179.51 61.2981L165.046 61.3408C165.044 59.2075 164.445 57.1612 163.249 55.2021C162.053 53.1576 160.345 51.4987 158.125 50.2252C155.906 48.8664 153.174 48.1918 149.932 48.2014C145.921 48.1279 142.551 49.1192 139.822 51.1753C137.093 53.146 135.73 55.8381 135.732 59.2514C135.736 63.4327 137.402 66.7131 140.732 69.0926C144.062 71.3868 149.483 73.7601 156.994 76.2126C161.688 77.7347 165.829 79.5999 169.414 81.8079C173.085 83.9304 175.946 86.6953 177.997 90.1026C180.133 93.4243 181.203 97.6878 181.207 102.893C181.211 107.672 180.02 112.027 177.633 115.96C175.247 119.807 171.794 122.889 167.273 125.206C162.837 127.523 157.462 128.691 151.148 128.71Z" fill="#B25F00"/>
<path d="M65.5645 226.086L37.7553 136.523L52.3473 136.504L73.5963 208.156L94.5873 136.449L109.179 136.429L81.6925 226.065L65.5645 226.086ZM117.482 226.019L117.321 136.419L131.657 136.4L150.29 176.824L168.777 136.352L183.113 136.333L183.274 225.933L170.346 225.95L170.232 162.206L155.697 194.225L144.945 194.239L130.296 162.386L130.41 226.002L117.482 226.019Z" fill="#B25F00"/>
</svg>
