<svg width="650" height="164" viewBox="0 0 650 164" fill="none" xmlns="http://www.w3.org/2000/svg">
<path d="M421.362 137.92L363.634 138.012L363.625 131.868L389.824 104.562C394.255 100.118 397.918 96.1013 400.814 92.5127C403.796 88.8387 406.052 85.2084 407.582 81.622C409.113 77.9502 409.875 73.9383 409.869 69.5863C409.86 63.869 408.19 59.477 404.857 56.4103C401.524 53.2582 396.999 51.6868 391.282 51.6958C387.271 51.7022 383.432 52.4336 379.765 53.8901C376.183 55.3465 372.688 57.4427 369.279 60.1788L365.303 55.0651C367.86 53.013 370.545 51.2594 373.359 49.8043C376.173 48.3491 379.073 47.2352 382.058 46.4625C385.129 45.6896 388.201 45.3007 391.273 45.2958C396.563 45.2874 401.13 46.3042 404.973 48.3461C408.901 50.3025 411.935 53.071 414.073 56.6517C416.212 60.1469 417.285 64.3266 417.292 69.1906C417.298 72.9452 416.791 76.4447 415.772 79.689C414.838 82.8478 413.434 85.922 411.561 88.9117C409.688 91.816 407.389 94.8063 404.662 97.8826C402.022 100.874 399.04 104.036 395.716 107.369L372.967 130.957L372.968 131.341L421.352 131.264L421.362 137.92ZM482.899 91.8705C482.91 99.5505 482.323 106.335 481.137 112.225C480.036 118.03 478.294 122.939 475.911 126.954C473.527 130.968 470.46 134.002 466.708 136.056C463.042 138.11 458.649 139.141 453.529 139.149C447.129 139.159 441.75 137.376 437.393 133.799C433.035 130.222 429.742 124.936 427.513 117.942C425.284 110.949 424.162 102.289 424.147 91.9637C424.133 82.5771 425.059 74.3836 426.926 67.3833C428.879 60.3828 431.985 54.9166 436.246 50.9845C440.592 47.0522 446.349 45.0804 453.517 45.069C460.515 45.0579 466.149 46.969 470.422 50.8022C474.78 54.6353 477.945 60.0916 479.918 67.1712C481.891 74.1654 482.885 82.3985 482.899 91.8705ZM431.443 91.9521C431.456 101.168 432.236 108.804 433.781 114.86C435.325 120.831 437.721 125.308 440.968 128.289C444.216 131.271 448.399 132.757 453.519 132.749C458.81 132.741 463.032 131.283 466.185 128.377C469.423 125.385 471.763 120.859 473.205 114.798C474.732 108.737 475.488 101.098 475.475 91.8823C475.462 83.3489 474.769 76.0967 473.394 70.1255C472.105 64.0689 469.837 59.4645 466.59 56.3123C463.428 53.0747 459.073 51.4602 453.527 51.469C447.98 51.4778 443.588 53.1061 440.35 56.354C437.112 59.6018 434.815 64.2561 433.459 70.3169C432.102 76.2924 431.43 83.5041 431.443 91.9521ZM542.012 137.729L484.284 137.82L484.275 131.676L510.474 104.371C514.905 99.9264 518.568 95.9099 521.464 92.3213C524.446 88.6472 526.702 85.0169 528.232 81.4305C529.763 77.7587 530.525 73.7469 530.518 69.3949C530.51 63.6775 528.839 59.2855 525.507 56.2188C522.174 53.0668 517.649 51.4953 511.932 51.5043C507.921 51.5107 504.082 52.2421 500.415 53.6986C496.833 55.155 493.338 57.2512 489.928 59.9873L485.953 54.8736C488.51 52.8215 491.195 51.0679 494.009 49.6128C496.823 48.1577 499.723 47.0437 502.708 46.271C505.779 45.4981 508.85 45.1092 511.922 45.1044C517.213 45.096 521.78 46.1127 525.623 48.1546C529.551 50.111 532.585 52.8796 534.723 56.4602C536.862 59.9555 537.935 64.1351 537.942 68.9991C537.947 72.7538 537.441 76.2532 536.421 79.4975C535.487 82.6563 534.084 85.7306 532.211 88.7202C530.338 91.6245 528.038 94.6148 525.312 97.6912C522.671 100.682 519.689 103.844 516.366 107.177L493.617 130.766L493.618 131.15L542.002 131.073L542.012 137.729ZM558.177 137.703L595.811 52.9072L544.099 52.9893L544.089 46.3333L603.609 46.2388L603.617 51.6148L566.113 137.69L558.177 137.703Z" fill="#F29105"/>
<g filter="url(#filter0_f_10_106)">
<path d="M282.871 137.198L262.289 68.239L261.777 68.2398C261.95 69.9462 262.125 72.4206 262.3 75.663C262.476 78.8201 262.651 82.2331 262.827 85.9022C263.003 89.4859 263.094 92.8565 263.098 96.0138L263.159 137.23L243.703 137.261L243.568 45.8687L273.008 45.822L293.46 113.374L293.972 113.373L314.864 45.7556L344.176 45.709L344.311 137.101L324.087 137.133L324.025 95.4051C324.021 92.5038 324.059 89.3037 324.139 85.8049C324.305 82.2206 324.428 78.8498 324.508 75.6923C324.674 72.4494 324.799 69.9745 324.881 68.2677L324.369 68.2685L303.351 137.166L282.871 137.198Z" fill="#B25F00"/>
</g>
<g filter="url(#filter1_f_10_106)">
<path d="M70.6659 110.512C70.6736 115.718 69.4006 120.456 66.8469 124.726C64.2931 128.912 60.458 132.246 55.3417 134.729C50.2252 137.126 43.7844 138.331 36.019 138.343C32.435 138.349 29.1067 138.141 26.0341 137.719C22.9615 137.297 20.0166 136.705 17.1995 135.941C14.4675 135.092 11.778 134.03 9.13073 132.754L9.10137 112.914C13.7125 115.04 18.4085 116.824 23.1893 118.268C28.0554 119.711 32.7072 120.428 37.1445 120.421C39.9605 120.417 42.2213 120.072 43.927 119.387C45.7178 118.616 46.9964 117.632 47.7626 116.437C48.6141 115.155 49.0386 113.704 49.0362 112.083C49.0333 110.12 48.3482 108.457 46.9808 107.094C45.6987 105.645 43.7766 104.283 41.2147 103.007C38.6527 101.646 35.5358 100.115 31.8639 98.4138C29.1315 97.2234 26.4415 95.8624 23.7939 94.3306C21.2315 92.7133 18.8821 90.8824 16.7457 88.8377C14.6946 86.7077 13.0269 84.193 11.7426 81.2937C10.5435 78.3089 9.94098 74.8112 9.93505 70.8005C9.92659 65.0832 11.2422 60.3024 13.8818 56.4582C16.6067 52.5286 20.3996 49.5359 25.2606 47.4802C30.1215 45.4245 35.8373 44.3914 42.408 44.381C47.784 44.3724 52.7342 44.9619 57.2586 46.1494C61.7831 47.3369 66.18 48.8659 70.4494 50.7365L63.5626 67.7714C59.464 65.9859 55.622 64.6267 52.0366 63.6937C48.5364 62.6753 45.1223 62.1687 41.7943 62.174C39.4903 62.1776 37.5708 62.522 36.0358 63.2071C34.5007 63.8069 33.3501 64.7047 32.5838 65.9006C31.8175 67.0111 31.4354 68.3344 31.4377 69.8704C31.4403 71.6624 32.04 73.2401 33.2367 74.6036C34.4333 75.8817 36.3126 77.2013 38.8746 78.5626C41.4366 79.9239 44.8097 81.5825 48.9939 83.5386C53.5196 85.5794 57.4056 87.7919 60.6518 90.1761C63.898 92.5602 66.3768 95.3723 68.0883 98.6123C69.7996 101.767 70.6588 105.734 70.6659 110.512Z" fill="#B25F00"/>
</g>
<g filter="url(#filter2_f_10_106)">
<path d="M143.531 110.512C143.538 115.718 142.265 120.456 139.712 124.726C137.158 128.912 133.323 132.246 128.207 134.729C123.09 137.126 116.649 138.331 108.884 138.343C105.3 138.349 101.972 138.141 98.899 137.719C95.8263 137.297 92.8815 136.705 90.0643 135.941C87.3324 135.092 84.6428 134.03 81.9956 132.754L81.9662 112.914C86.5774 115.04 91.2734 116.824 96.0542 118.268C100.92 119.711 105.572 120.428 110.009 120.421C112.825 120.417 115.086 120.072 116.792 119.387C118.583 118.616 119.861 117.632 120.627 116.437C121.479 115.155 121.903 113.704 121.901 112.083C121.898 110.12 121.213 108.457 119.846 107.094C118.564 105.645 116.642 104.283 114.08 103.007C111.518 101.646 108.401 100.115 104.729 98.4138C101.996 97.2234 99.3064 95.8624 96.6588 94.3306C94.0964 92.7133 91.747 90.8824 89.6106 88.8377C87.5595 86.7077 85.8917 84.193 84.6074 81.2937C83.4084 78.3089 82.8059 74.8112 82.7999 70.8005C82.7915 65.0832 84.107 60.3024 86.7467 56.4582C89.4716 52.5286 93.2645 49.5359 98.1254 47.4802C102.986 45.4245 108.702 44.3914 115.273 44.381C120.649 44.3724 125.599 44.9619 130.123 46.1494C134.648 47.3369 139.045 48.8659 143.314 50.7365L136.427 67.7714C132.329 65.9859 128.487 64.6267 124.901 63.6937C121.401 62.6753 117.987 62.1687 114.659 62.174C112.355 62.1776 110.436 62.522 108.901 63.2071C107.366 63.8069 106.215 64.7047 105.449 65.9006C104.682 67.0111 104.3 68.3344 104.303 69.8704C104.305 71.6624 104.905 73.2401 106.102 74.6036C107.298 75.8817 109.177 77.2013 111.739 78.5626C114.301 79.9239 117.675 81.5825 121.859 83.5386C126.385 85.5794 130.27 87.7919 133.517 90.1761C136.763 92.5602 139.242 95.3723 140.953 98.6123C142.664 101.767 143.524 105.734 143.531 110.512Z" fill="#B25F00"/>
</g>
<g filter="url(#filter3_f_10_106)">
<path d="M232.735 45.587L202.279 137.027L177.575 137.067L146.975 45.7231L170.399 45.6859L185.322 96.3503C185.751 97.6297 186.266 99.5915 186.867 102.236C187.468 104.795 188.069 107.482 188.671 110.297C189.358 113.027 189.788 115.287 189.961 117.079C190.214 115.287 190.595 113.025 191.103 110.293C191.696 107.562 192.29 104.915 192.883 102.354C193.477 99.7081 193.986 97.7446 194.41 96.4639L209.439 45.624L232.735 45.587Z" fill="#B25F00"/>
</g>
<defs>
<filter id="filter0_f_10_106" x="242.568" y="44.709" width="102.743" height="93.5516" filterUnits="userSpaceOnUse" color-interpolation-filters="sRGB">
<feFlood flood-opacity="0" result="BackgroundImageFix"/>
<feBlend mode="normal" in="SourceGraphic" in2="BackgroundImageFix" result="shape"/>
<feGaussianBlur stdDeviation="0.5" result="effect1_foregroundBlur_10_106"/>
</filter>
<filter id="filter1_f_10_106" x="0" y="35.3363" width="79.707" height="112.05" filterUnits="userSpaceOnUse" color-interpolation-filters="sRGB">
<feFlood flood-opacity="0" result="BackgroundImageFix"/>
<feBlend mode="normal" in="SourceGraphic" in2="BackgroundImageFix" result="shape"/>
<feGaussianBlur stdDeviation="4.5" result="effect1_foregroundBlur_10_106"/>
</filter>
<filter id="filter2_f_10_106" x="75.8649" y="38.3363" width="73.707" height="106.05" filterUnits="userSpaceOnUse" color-interpolation-filters="sRGB">
<feFlood flood-opacity="0" result="BackgroundImageFix"/>
<feBlend mode="normal" in="SourceGraphic" in2="BackgroundImageFix" result="shape"/>
<feGaussianBlur stdDeviation="3" result="effect1_foregroundBlur_10_106"/>
</filter>
<filter id="filter3_f_10_106" x="143.975" y="42.587" width="91.8951" height="97.528" filterUnits="userSpaceOnUse" color-interpolation-filters="sRGB">
<feFlood flood-opacity="0" result="BackgroundImageFix"/>
<feBlend mode="normal" in="SourceGraphic" in2="BackgroundImageFix" result="shape"/>
<feGaussianBlur stdDeviation="1.5" result="effect1_foregroundBlur_10_106"/>
</filter>
</defs>
</svg>
