<svg width="645" height="135" viewBox="0 0 645 135" fill="none" xmlns="http://www.w3.org/2000/svg">
<path d="M285.238 28.4686L300.113 28.4492L325.111 96.9167L349.8 28.3844L364.738 28.3649L331.089 119.409L319.152 119.424L285.238 28.4686ZM277.738 28.4784L292.3 28.4594L295.039 91.3934L295.089 119.456L277.902 119.478L277.738 28.4784ZM357.613 28.3742L372.238 28.3551L372.402 119.355L355.214 119.377L355.164 91.3149L357.613 28.3742Z" fill="#A26000"/>
<path d="M436.525 112.834L436.537 119.271L379.599 119.346L379.589 113.533L409.34 79.6817C413.041 75.4686 415.993 71.7772 418.195 68.6077C420.398 65.3964 421.976 62.4777 422.93 59.8515C423.925 57.1835 424.42 54.5995 424.416 52.0995C424.409 48.4329 423.674 45.2047 422.211 42.4149C420.789 39.6251 418.66 37.4404 415.824 35.8607C412.988 34.2811 409.486 33.494 405.32 33.4994C401.153 33.5049 397.53 34.4054 394.449 36.2011C391.369 37.9968 388.999 40.4999 387.338 43.7104C385.719 46.8792 384.913 50.4844 384.92 54.5261L377.482 54.5358C377.473 49.5358 378.569 44.951 380.77 40.7815C383.013 36.6119 386.215 33.2952 390.377 30.8314C394.539 28.326 399.516 27.0695 405.308 27.0619C410.808 27.0548 415.539 28.0278 419.501 29.9809C423.463 31.8924 426.509 34.6593 428.641 38.2815C430.814 41.9037 431.905 46.2772 431.914 51.4022C431.919 54.1522 431.424 56.9237 430.429 59.7167C429.476 62.5096 428.148 65.303 426.444 68.0969C424.783 70.8491 422.871 73.5807 420.709 76.2919C418.589 79.003 416.365 81.6726 414.036 84.3006L388.712 112.896L436.525 112.834ZM495.076 65.8823L495.103 81.1948C495.115 87.8615 494.501 93.6748 493.259 98.6347C492.018 103.553 490.192 107.639 487.782 110.892C485.412 114.103 482.5 116.503 479.044 118.091C475.631 119.679 471.715 120.475 467.299 120.481C463.799 120.486 460.59 119.99 457.671 118.994C454.753 117.997 452.146 116.48 449.85 114.441C447.597 112.361 445.675 109.759 444.086 106.636C442.497 103.513 441.282 99.8484 440.441 95.6411C439.601 91.3922 439.175 86.6011 439.166 81.2678L439.138 65.9553C439.126 59.247 439.741 53.4545 440.982 48.5779C442.265 43.7012 444.091 39.6572 446.46 36.4457C448.871 33.2343 451.804 30.8554 455.26 29.3093C458.715 27.7214 462.63 26.9246 467.005 26.9189C470.505 26.9144 473.715 27.431 476.633 28.4689C479.593 29.465 482.2 30.9616 484.454 32.9587C486.749 34.9557 488.67 37.5157 490.218 40.6386C491.806 43.7199 493.001 47.3642 493.8 51.5715C494.641 55.7787 495.066 60.549 495.076 65.8823ZM487.667 82.0795L487.636 64.9545C487.629 60.8295 487.331 57.0799 486.741 53.7057C486.193 50.3314 485.376 47.3741 484.288 44.8339C483.2 42.2936 481.821 40.1704 480.151 38.4643C478.523 36.7581 476.604 35.4897 474.394 34.6593C472.226 33.7871 469.767 33.3528 467.017 33.3564C463.642 33.3608 460.664 34.0522 458.083 35.4306C455.544 36.7672 453.423 38.77 451.719 41.4389C450.015 44.0661 448.73 47.3595 447.862 51.3189C447.036 55.2783 446.627 59.8414 446.636 65.008L446.667 82.133C446.675 86.2163 446.952 89.9451 447.5 93.3194C448.047 96.6521 448.886 99.6093 450.016 102.191C451.145 104.773 452.524 106.959 454.153 108.748C455.822 110.496 457.741 111.827 459.91 112.741C462.12 113.613 464.579 114.047 467.287 114.044C470.745 114.039 473.744 113.348 476.283 111.969C478.823 110.549 480.944 108.484 482.647 105.774C484.351 103.021 485.615 99.6655 486.442 95.7061C487.268 91.705 487.676 87.1628 487.667 82.0795ZM558.045 112.675L558.056 119.113L501.119 119.187L501.108 113.374L530.86 79.5231C534.561 75.31 537.513 71.6186 539.715 68.4491C541.918 65.2379 543.496 62.3191 544.449 59.6929C545.445 57.0249 545.94 54.4409 545.936 51.9409C545.929 48.2743 545.194 45.0461 543.731 42.2563C542.309 39.4665 540.18 37.2818 537.344 35.7021C534.508 34.1225 531.006 33.3354 526.84 33.3408C522.673 33.3463 519.049 34.2468 515.969 36.0425C512.889 37.8382 510.519 40.3413 508.858 43.5518C507.239 46.7206 506.433 50.3258 506.44 54.3675L499.002 54.3772C498.993 49.3772 500.089 44.7924 502.29 40.6229C504.533 36.4533 507.735 33.1366 511.897 30.6728C516.059 28.1674 521.036 26.9109 526.828 26.9034C532.328 26.8962 537.059 27.8692 541.021 29.8223C544.982 31.7338 548.029 34.5007 550.161 38.1229C552.334 41.7451 553.425 46.1187 553.434 51.2437C553.439 53.9936 552.944 56.7651 551.949 59.5581C550.996 62.351 549.668 65.1444 547.964 67.9383C546.303 70.6905 544.391 73.4221 542.229 76.1333C540.109 78.8444 537.885 81.514 535.556 84.142L510.232 112.738L558.045 112.675ZM617.715 28.0347L617.723 32.3472L579.004 119.085L571.254 119.095L609.727 34.4827L557.914 34.5503L557.903 28.1128L617.715 28.0347Z" fill="#F29105"/>
<g filter="url(#filter0_f_1_17)">
<path d="M226.87 101.25L249.425 28.0331L268.488 28.0082L236.527 119.05L223.839 119.067L226.87 101.25ZM205.8 28.09L228.495 101.248L231.777 119.056L218.964 119.073L186.8 28.1148L205.8 28.09Z" fill="#A26000"/>
</g>
<g filter="url(#filter1_f_1_17)">
<path d="M66.8666 94.0312C66.8636 92.4896 66.6319 91.1149 66.1713 89.9071C65.7106 88.6577 64.8751 87.5129 63.6648 86.4727C62.4545 85.4326 60.7442 84.393 58.5339 83.3541C56.3235 82.2735 53.4256 81.173 49.8402 80.0524C45.7543 78.7242 41.8557 77.2291 38.1442 75.567C34.4743 73.8633 31.1998 71.8882 28.3205 69.6417C25.4413 67.3953 23.1655 64.7732 21.4932 61.7752C19.8625 58.7773 19.0434 55.2783 19.0359 51.2783C19.0286 47.4033 19.8761 43.9023 21.5786 40.7751C23.281 37.648 25.6718 34.9784 28.751 32.7662C31.8301 30.5124 35.4519 28.7995 39.6163 27.6277C43.7807 26.4141 48.3629 25.8043 53.3629 25.798C60.0296 25.7897 65.886 26.9699 70.9321 29.3386C76.0198 31.6656 79.9844 34.9524 82.8257 39.1988C85.667 43.4036 87.0929 48.2977 87.1034 53.881L66.8534 53.9062C66.8488 51.4479 66.3239 49.2819 65.2787 47.4082C64.275 45.4928 62.7305 43.9947 60.6452 42.914C58.6015 41.8332 56.0379 41.2947 52.9546 41.2985C49.9546 41.3023 47.4347 41.7638 45.3947 42.683C43.3964 43.5605 41.8778 44.7707 40.8391 46.3136C39.842 47.8565 39.3451 49.5447 39.3486 51.378C39.3513 52.8363 39.7289 54.1692 40.4811 55.3766C41.275 56.5423 42.4021 57.645 43.8624 58.6849C45.3643 59.683 47.1994 60.6391 49.3678 61.553C51.5362 62.467 54.017 63.3389 56.8102 64.1688C61.6881 65.7043 66.0039 67.4073 69.7574 69.2776C73.5526 71.1479 76.7441 73.2689 79.3319 75.6407C81.9197 78.0125 83.8623 80.6976 85.1596 83.6959C86.4986 86.6943 87.1717 90.0893 87.1788 93.8809C87.1864 97.9226 86.4015 101.507 84.8241 104.634C83.2883 107.761 81.0433 110.43 78.0892 112.642C75.1766 114.813 71.6797 116.463 67.5985 117.593C63.5173 118.723 58.9558 119.291 53.9142 119.297C49.3308 119.303 44.8089 118.725 40.3484 117.564C35.8878 116.362 31.8426 114.533 28.213 112.079C24.625 109.626 21.7442 106.504 19.5703 102.715C17.4381 98.8845 16.3671 94.3442 16.3572 89.0942L36.7321 89.0688C36.7373 91.8188 37.1376 94.1516 37.9328 96.0673C38.728 97.9413 39.8559 99.4607 41.3164 100.626C42.8186 101.79 44.6327 102.621 46.7587 103.119C48.8846 103.616 51.2601 103.863 53.8851 103.86C56.9267 103.856 59.3843 103.436 61.2577 102.601C63.1727 101.723 64.5871 100.534 65.501 99.0329C66.4148 97.5318 66.87 95.8646 66.8666 94.0312Z" fill="#A26000"/>
</g>
<g filter="url(#filter2_f_1_17)">
<path d="M155.671 95.2164C155.668 93.5914 155.416 92.1334 154.913 90.8424C154.453 89.5097 153.575 88.3025 152.282 87.2208C150.988 86.0975 149.174 84.9957 146.838 83.9154C144.503 82.8351 141.48 81.7141 137.77 80.5523C133.642 79.2243 129.723 77.7294 126.012 76.0676C122.342 74.4057 119.089 72.4725 116.251 70.2678C113.456 68.0215 111.243 65.4202 109.612 62.464C108.024 59.5077 107.226 56.0713 107.219 52.1546C107.212 48.363 108.039 44.9244 109.7 41.8389C111.361 38.7117 113.69 36.042 116.686 33.8297C119.682 31.5758 123.22 29.842 127.301 28.6284C131.424 27.4147 135.944 26.8046 140.861 26.7982C147.569 26.7894 153.425 27.9901 158.43 30.4003C163.434 32.8104 167.315 36.1178 170.072 40.3226C172.872 44.5273 174.276 49.3379 174.286 54.7546L155.661 54.7789C155.656 52.1122 155.089 49.7796 153.961 47.7811C152.874 45.7409 151.204 44.1389 148.952 42.9751C146.742 41.8114 143.949 41.2317 140.574 41.2361C137.324 41.2403 134.617 41.7438 132.452 42.7467C130.287 43.7078 128.664 45.0225 127.584 46.6905C126.503 48.3169 125.965 50.151 125.969 52.1926C125.972 53.7343 126.349 55.1296 127.101 56.3787C127.895 57.6276 129.064 58.7928 130.608 59.8741C132.151 60.9554 134.049 61.9738 136.301 62.9292C138.552 63.8846 141.158 64.8187 144.118 65.7315C149.079 67.225 153.436 68.9068 157.19 70.7769C160.985 72.647 164.155 74.747 166.701 77.077C169.247 79.407 171.168 82.0503 172.465 85.007C173.762 87.9636 174.414 91.3169 174.421 95.0669C174.428 99.0253 173.664 102.568 172.128 105.695C170.592 108.822 168.367 111.471 165.454 113.641C162.542 115.812 159.065 117.462 155.026 118.592C150.986 119.723 146.466 120.291 141.466 120.297C136.966 120.303 132.528 119.726 128.151 118.565C123.774 117.362 119.791 115.555 116.203 113.143C112.657 110.731 109.819 107.651 107.687 103.904C105.555 100.157 104.485 95.7207 104.475 90.5957L123.288 90.5712C123.293 93.4045 123.735 95.7998 124.613 97.7569C125.492 99.7141 126.724 101.296 128.309 102.502C129.936 103.708 131.855 104.581 134.064 105.12C136.315 105.658 138.774 105.926 141.44 105.922C144.69 105.918 147.356 105.456 149.438 104.537C151.561 103.618 153.122 102.345 154.119 100.718C155.157 99.0921 155.675 97.2581 155.671 95.2164Z" fill="#A26000"/>
</g>
<defs>
<filter id="filter0_f_1_17" x="181.8" y="23.0082" width="91.8512" height="101.106" filterUnits="userSpaceOnUse" color-interpolation-filters="sRGB">
<feFlood flood-opacity="0" result="BackgroundImageFix"/>
<feBlend mode="normal" in="SourceGraphic" in2="BackgroundImageFix" result="shape"/>
<feGaussianBlur stdDeviation="2.5" result="effect1_foregroundBlur_1_17"/>
</filter>
<filter id="filter1_f_1_17" x="1.23792" y="10.7561" width="100.989" height="123.588" filterUnits="userSpaceOnUse" color-interpolation-filters="sRGB">
<feFlood flood-opacity="0" result="BackgroundImageFix"/>
<feBlend mode="normal" in="SourceGraphic" in2="BackgroundImageFix" result="shape"/>
<feGaussianBlur stdDeviation="7.5" result="effect1_foregroundBlur_1_17"/>
</filter>
<filter id="filter2_f_1_17" x="94.3606" y="16.7545" width="90.1057" height="113.591" filterUnits="userSpaceOnUse" color-interpolation-filters="sRGB">
<feFlood flood-opacity="0" result="BackgroundImageFix"/>
<feBlend mode="normal" in="SourceGraphic" in2="BackgroundImageFix" result="shape"/>
<feGaussianBlur stdDeviation="5" result="effect1_foregroundBlur_1_17"/>
</filter>
</defs>
</svg>
