<svg width="606" height="135" viewBox="0 0 606 135" fill="none" xmlns="http://www.w3.org/2000/svg">
<path d="M417.217 113.293L417.228 119.73L360.291 119.804L360.281 113.992L390.032 80.1406C393.733 75.9274 396.685 72.2361 398.887 69.0665C401.09 65.8553 402.668 62.9366 403.622 60.3104C404.617 57.6424 405.112 55.0584 405.108 52.5584C405.101 48.8918 404.366 45.6635 402.903 42.8738C401.481 40.084 399.352 37.8993 396.516 36.3196C393.68 34.74 390.178 33.9529 386.012 33.9583C381.845 33.9638 378.222 34.8643 375.141 36.66C372.061 38.4557 369.691 40.9588 368.03 44.1693C366.411 47.3381 365.605 50.9433 365.612 54.985L358.174 54.9947C358.165 49.9947 359.261 45.4099 361.462 41.2404C363.705 37.0708 366.907 33.7541 371.069 31.2903C375.231 28.7849 380.208 27.5284 386 27.5208C391.5 27.5137 396.231 28.4867 400.193 30.4398C404.155 32.3513 407.201 35.1182 409.333 38.7404C411.506 42.3626 412.597 46.7361 412.606 51.8611C412.611 54.6111 412.116 57.3826 411.121 60.1756C410.168 62.9685 408.84 65.7619 407.136 68.5558C405.475 71.308 403.563 74.0396 401.401 76.7508C399.281 79.4619 397.057 82.1314 394.728 84.7595L369.404 113.355L417.217 113.293ZM475.767 66.3412L475.795 81.6537C475.807 88.3203 475.192 94.1337 473.951 99.0936C472.71 104.012 470.884 108.098 468.473 111.351C466.104 114.562 463.192 116.962 459.736 118.55C456.323 120.137 452.407 120.934 447.991 120.94C444.491 120.945 441.281 120.449 438.363 119.453C435.445 118.456 432.838 116.939 430.542 114.9C428.289 112.82 426.367 110.218 424.778 107.095C423.189 103.972 421.974 100.307 421.133 96.1C420.292 91.8511 419.867 87.06 419.858 81.7267L419.83 66.4142C419.818 59.7059 420.433 53.9134 421.674 49.0368C422.957 44.1601 424.783 40.1161 427.152 36.9046C429.563 33.6932 432.496 31.3143 435.952 29.7681C439.407 28.1803 443.322 27.3835 447.697 27.3778C451.197 27.3732 454.407 27.8899 457.325 28.9278C460.285 29.9239 462.892 31.4205 465.146 33.4176C467.441 35.4146 469.362 37.9746 470.91 41.0975C472.498 44.1788 473.692 47.8231 474.492 52.0304C475.333 56.2376 475.758 61.0079 475.767 66.3412ZM468.359 82.5384L468.328 65.4134C468.321 61.2884 468.022 57.5388 467.433 54.1646C466.885 50.7903 466.067 47.833 464.98 45.2928C463.892 42.7525 462.513 40.6293 460.843 38.9232C459.215 37.217 457.296 35.9486 455.086 35.1182C452.918 34.246 450.459 33.8117 447.709 33.8153C444.334 33.8197 441.356 34.5111 438.775 35.8895C436.236 37.2261 434.114 39.2289 432.411 41.8978C430.707 44.525 429.422 47.8183 428.554 51.7778C427.727 55.7372 427.319 60.3003 427.328 65.4669L427.359 82.5919C427.366 86.6752 427.644 90.404 428.192 93.7783C428.739 97.1109 429.578 100.068 430.708 102.65C431.837 105.232 433.216 107.418 434.845 109.207C436.514 110.955 438.433 112.286 440.602 113.2C442.812 114.072 445.271 114.506 447.979 114.503C451.437 114.498 454.436 113.807 456.975 112.428C459.514 111.008 461.636 108.943 463.339 106.232C465.043 103.48 466.307 100.124 467.134 96.165C467.96 92.1639 468.368 87.6217 468.359 82.5384ZM538.737 113.134L538.748 119.572L481.811 119.646L481.8 113.833L511.552 79.982C515.253 75.7689 518.205 72.0775 520.407 68.908C522.61 65.6967 524.188 62.778 525.141 60.1518C526.137 57.4838 526.632 54.8998 526.627 52.3998C526.621 48.7332 525.886 45.505 524.423 42.7152C523.001 39.9254 520.872 37.7407 518.036 36.161C515.2 34.5814 511.698 33.7943 507.531 33.7997C503.365 33.8052 499.741 34.7057 496.661 36.5014C493.581 38.2971 491.211 40.8002 489.55 44.0107C487.931 47.1795 487.124 50.7847 487.132 54.8264L479.694 54.8361C479.685 49.8361 480.781 45.2513 482.982 41.0818C485.225 36.9122 488.427 33.5955 492.589 31.1317C496.751 28.6263 501.728 27.3698 507.52 27.3622C513.02 27.3551 517.751 28.3281 521.713 30.2812C525.674 32.1927 528.721 34.9596 530.853 38.5818C533.026 42.204 534.117 46.5775 534.126 51.7025C534.131 54.4525 533.636 57.224 532.641 60.017C531.688 62.8099 530.36 65.6033 528.656 68.3972C526.995 71.1494 525.083 73.881 522.921 76.5922C520.801 79.3033 518.577 81.9729 516.248 84.6009L490.924 113.196L538.737 113.134ZM598.407 28.4936L598.415 32.8061L559.696 119.544L551.946 119.554L590.419 34.9416L538.606 35.0092L538.595 28.5717L598.407 28.4936Z" fill="#F29105"/>
<g filter="url(#filter0_f_8_95)">
<path d="M260.69 28.2077L275.565 28.1883L300.563 96.6557L325.252 28.1235L340.19 28.104L306.541 119.148L294.603 119.164L260.69 28.2077ZM253.19 28.2175L267.752 28.1985L270.49 91.1325L270.541 119.195L253.354 119.217L253.19 28.2175ZM333.065 28.1133L347.69 28.0942L347.853 119.094L330.666 119.116L330.615 91.054L333.065 28.1133Z" fill="#B25F00"/>
</g>
<g filter="url(#filter1_f_8_95)">
<path d="M60.936 95.3962C60.9328 93.6462 60.6592 92.0841 60.115 90.7098C59.6125 89.2938 58.6727 88.0242 57.2957 86.901C55.9602 85.7361 54.0624 84.6135 51.6021 83.5334C49.1834 82.4116 46.0563 81.249 42.2208 80.0456C37.9684 78.7179 34.0074 77.223 30.3377 75.5612C26.6681 73.8993 23.4354 71.966 20.6398 69.7613C17.8858 67.5566 15.7354 65.0177 14.1885 62.1447C12.6416 59.2301 11.8647 55.8561 11.8578 52.0228C11.8511 48.2728 12.6366 44.8551 14.2144 41.7697C15.8338 38.6842 18.1207 36.0354 21.0751 33.8232C24.0294 31.5694 27.5054 29.8356 31.5032 28.6221C35.5427 27.4085 40 26.7985 44.875 26.7921C51.625 26.7833 57.4605 28.0049 62.3816 30.4568C67.3443 32.9087 71.1837 36.237 73.8996 40.4418C76.6155 44.6466 77.9782 49.374 77.9876 54.624L60.8626 54.6463C60.8575 51.813 60.2489 49.3138 59.0366 47.1487C57.8661 44.9835 56.0713 43.2775 53.6524 42.0307C51.2752 40.7838 48.274 40.1627 44.649 40.1674C41.149 40.172 38.2333 40.6967 35.9019 41.7414C33.6121 42.786 31.8855 44.2049 30.722 45.9981C29.6002 47.7913 29.0413 49.792 29.0453 52.0003C29.0483 53.667 29.4468 55.1665 30.2409 56.4988C31.0349 57.7894 32.2246 59.017 33.81 60.1816C35.3954 61.3045 37.3556 62.3645 39.6908 63.3614C42.0675 64.3167 44.8192 65.2714 47.9459 66.2257C52.9486 67.7191 57.3266 69.3801 61.0799 71.2085C64.8749 73.0369 68.0245 75.1161 70.5287 77.4462C73.0745 79.7762 74.9751 82.3987 76.2303 85.3138C77.5272 88.2287 78.179 91.5404 78.1857 95.2487C78.1928 99.1654 77.4282 102.666 75.8921 105.752C74.356 108.837 72.1524 111.465 69.2813 113.635C66.4102 115.806 62.9548 117.456 58.9152 118.586C54.9172 119.717 50.4391 120.285 45.4807 120.291C41.0641 120.297 36.688 119.72 32.3526 118.559C28.0588 117.356 24.1597 115.569 20.6554 113.199C17.1511 110.787 14.3539 107.749 12.264 104.085C10.174 100.379 9.12455 96.0472 9.11562 91.0889L26.3656 91.0663C26.3708 93.9413 26.8335 96.3991 27.7539 98.4395C28.7158 100.438 30.0521 102.082 31.7628 103.372C33.515 104.62 35.5583 105.534 37.8927 106.114C40.2271 106.694 42.7484 106.982 45.4568 106.979C48.9568 106.974 51.8309 106.491 54.0792 105.53C56.369 104.527 58.0749 103.15 59.1968 101.399C60.3603 99.647 60.94 97.6462 60.936 95.3962Z" fill="#B25F00"/>
</g>
<g filter="url(#filter2_f_8_95)">
<path d="M140.936 95.3962C140.933 93.6462 140.659 92.0841 140.115 90.7098C139.612 89.2938 138.673 88.0242 137.296 86.901C135.96 85.7361 134.062 84.6135 131.602 83.5334C129.183 82.4116 126.056 81.249 122.221 80.0456C117.968 78.7179 114.007 77.223 110.338 75.5612C106.668 73.8993 103.435 71.966 100.64 69.7613C97.8858 67.5566 95.7354 65.0177 94.1885 62.1447C92.6416 59.2301 91.8647 55.8561 91.8578 52.0228C91.8511 48.2728 92.6366 44.8551 94.2144 41.7697C95.8338 38.6842 98.1207 36.0354 101.075 33.8232C104.029 31.5694 107.505 29.8356 111.503 28.6221C115.543 27.4085 120 26.7985 124.875 26.7921C131.625 26.7833 137.461 28.0049 142.382 30.4568C147.344 32.9087 151.184 36.237 153.9 40.4418C156.615 44.6466 157.978 49.374 157.988 54.624L140.863 54.6463C140.858 51.813 140.249 49.3138 139.037 47.1487C137.866 44.9835 136.071 43.2775 133.652 42.0307C131.275 40.7838 128.274 40.1627 124.649 40.1674C121.149 40.172 118.233 40.6967 115.902 41.7414C113.612 42.786 111.885 44.2049 110.722 45.9981C109.6 47.7913 109.041 49.792 109.045 52.0003C109.048 53.667 109.447 55.1665 110.241 56.4988C111.035 57.7894 112.225 59.017 113.81 60.1816C115.395 61.3045 117.356 62.3645 119.691 63.3614C122.067 64.3167 124.819 65.2714 127.946 66.2257C132.949 67.7191 137.327 69.3801 141.08 71.2085C144.875 73.0369 148.024 75.1161 150.529 77.4462C153.075 79.7762 154.975 82.3987 156.23 85.3138C157.527 88.2287 158.179 91.5404 158.186 95.2487C158.193 99.1654 157.428 102.666 155.892 105.752C154.356 108.837 152.152 111.465 149.281 113.635C146.41 115.806 142.955 117.456 138.915 118.586C134.917 119.717 130.439 120.285 125.481 120.291C121.064 120.297 116.688 119.72 112.353 118.559C108.059 117.356 104.16 115.569 100.655 113.199C97.1511 110.787 94.3539 107.749 92.264 104.085C90.174 100.379 89.1245 96.0472 89.1156 91.0889L106.366 91.0663C106.371 93.9413 106.834 96.3991 107.754 98.4395C108.716 100.438 110.052 102.082 111.763 103.372C113.515 104.62 115.558 105.534 117.893 106.114C120.227 106.694 122.748 106.982 125.457 106.979C128.957 106.974 131.831 106.491 134.079 105.53C136.369 104.527 138.075 103.15 139.197 101.399C140.36 99.647 140.94 97.6462 140.936 95.3962Z" fill="#B25F00"/>
</g>
<g filter="url(#filter3_f_8_95)">
<path d="M205.321 101.229L227.877 28.0121L246.94 27.9872L214.978 119.029L202.291 119.046L205.321 101.229ZM184.252 28.0691L206.946 101.227L210.228 119.035L197.416 119.052L165.252 28.0939L184.252 28.0691Z" fill="#B25F00"/>
</g>
<defs>
<filter id="filter0_f_8_95" x="252.19" y="27.0942" width="96.6637" height="93.1232" filterUnits="userSpaceOnUse" color-interpolation-filters="sRGB">
<feFlood flood-opacity="0" result="BackgroundImageFix"/>
<feBlend mode="normal" in="SourceGraphic" in2="BackgroundImageFix" result="shape"/>
<feGaussianBlur stdDeviation="0.5" result="effect1_foregroundBlur_8_95"/>
</filter>
<filter id="filter1_f_8_95" x="0" y="17.7488" width="87.2307" height="111.59" filterUnits="userSpaceOnUse" color-interpolation-filters="sRGB">
<feFlood flood-opacity="0" result="BackgroundImageFix"/>
<feBlend mode="normal" in="SourceGraphic" in2="BackgroundImageFix" result="shape"/>
<feGaussianBlur stdDeviation="4.5" result="effect1_foregroundBlur_8_95"/>
</filter>
<filter id="filter2_f_8_95" x="83" y="20.7488" width="81.2307" height="105.59" filterUnits="userSpaceOnUse" color-interpolation-filters="sRGB">
<feFlood flood-opacity="0" result="BackgroundImageFix"/>
<feBlend mode="normal" in="SourceGraphic" in2="BackgroundImageFix" result="shape"/>
<feGaussianBlur stdDeviation="3" result="effect1_foregroundBlur_8_95"/>
</filter>
<filter id="filter3_f_8_95" x="162.252" y="24.9872" width="87.8512" height="97.1065" filterUnits="userSpaceOnUse" color-interpolation-filters="sRGB">
<feFlood flood-opacity="0" result="BackgroundImageFix"/>
<feBlend mode="normal" in="SourceGraphic" in2="BackgroundImageFix" result="shape"/>
<feGaussianBlur stdDeviation="1.5" result="effect1_foregroundBlur_8_95"/>
</filter>
</defs>
</svg>
